<svg width="18" height="18" viewBox="0 0 18 18" fill="none" xmlns="http://www.w3.org/2000/svg">
<path fill-rule="evenodd" clip-rule="evenodd" d="M4.24486 10.3065C4.51817 10.3065 4.73973 10.534 4.73973 10.8146V12.4839H13.6473V10.8146C13.6473 10.534 13.8688 10.3065 14.1421 10.3065C14.4155 10.3065 14.637 10.534 14.637 10.8146V13.5H3.75V10.8146C3.75 10.534 3.97156 10.3065 4.24486 10.3065Z" fill="#637787"/>
<path fill-rule="evenodd" clip-rule="evenodd" d="M9.19355 10.5968C9.47414 10.5968 9.70161 10.3693 9.70161 10.0887V5.00809C9.70161 4.7275 9.47414 4.50003 9.19355 4.50003C8.91295 4.50003 8.68549 4.7275 8.68549 5.00809V10.0887C8.68549 10.3693 8.91295 10.5968 9.19355 10.5968Z" fill="#637787"/>
<path d="M7.71783 9.32909L8.94938 11.0533C9.06903 11.2208 9.31797 11.2208 9.43762 11.0533L10.6692 9.32909C10.811 9.13053 10.6691 8.85472 10.425 8.85472H7.96195C7.71794 8.85472 7.57601 9.13053 7.71783 9.32909Z" fill="#637787"/>
</svg>
