<svg width="34" height="34" viewBox="0 0 34 34" fill="none" xmlns="http://www.w3.org/2000/svg">
<path d="M16.2106 20.4212L14.9544 29.2206C14.934 29.3654 14.9606 29.5129 15.0302 29.6415C15.0999 29.7701 15.2088 29.873 15.3412 29.9352C15.4736 29.9973 15.6224 30.0154 15.7658 29.9868C15.9092 29.9582 16.0397 29.8844 16.1381 29.7762L29.823 14.7228C29.912 14.6247 29.9706 14.5029 29.9917 14.3721C30.0129 14.2413 29.9956 14.1072 29.942 13.9861C29.8883 13.865 29.8007 13.762 29.6897 13.6897C29.5787 13.6174 29.4491 13.5789 29.3166 13.5788H17.7899L19.0461 4.77941C19.0665 4.6346 19.0399 4.48708 18.9703 4.35848C18.9006 4.22988 18.7917 4.12697 18.6593 4.06484C18.5269 4.0027 18.3781 3.98461 18.2347 4.01322C18.0913 4.04183 17.9608 4.11563 17.8624 4.22381L4.17753 19.2772C4.0885 19.3753 4.02987 19.4971 4.00875 19.6279C3.98763 19.7587 4.00493 19.8928 4.05854 20.0139C4.11216 20.135 4.19978 20.238 4.31079 20.3103C4.42179 20.3826 4.55139 20.4211 4.68387 20.4212H16.2106Z" fill="white"/>
<circle cx="26.4" cy="8.4" r="2.4" fill="#FFD661"/>
<path fill-rule="evenodd" clip-rule="evenodd" d="M12.6541 5.6334C12.8566 6.08736 12.6527 6.61949 12.1987 6.82194C9.1148 8.19735 6.76078 10.9007 5.86874 14.1955C5.73884 14.6752 5.2446 14.9589 4.76482 14.829C4.28503 14.6991 4.0014 14.2048 4.13129 13.7251C5.16712 9.8992 7.89597 6.77003 11.4656 5.17803C11.9195 4.97557 12.4517 5.17945 12.6541 5.6334ZM29.0702 18.4253C29.5594 18.5133 29.8846 18.9813 29.7965 19.4705C28.926 24.3076 25.394 28.219 20.7671 29.6569C20.2925 29.8045 19.7881 29.5392 19.6406 29.0646C19.4931 28.5899 19.7583 28.0855 20.2329 27.938C24.2292 26.6961 27.2754 23.3167 28.025 19.1516C28.113 18.6624 28.581 18.3372 29.0702 18.4253ZM5.57691 22.0594C6.01561 21.8257 6.56068 21.9919 6.79436 22.4306C8.04882 24.7858 10.116 26.648 12.6233 27.6459C13.0851 27.8297 13.3105 28.3531 13.1267 28.8149C12.9429 29.2767 12.4195 29.5021 11.9577 29.3183C9.05302 28.1622 6.65954 26.0063 5.20567 23.2768C4.972 22.8381 5.13821 22.2931 5.57691 22.0594Z" fill="white"/>
</svg>
